Coordinates
version=1
nRows=14
nColumns=40
inDegrees=yes

Units are S.I. units (second, meters, Newtons, ...)
If the header above contains a line with 'inDegrees', this indicates whether rotational values are in degrees (yes) or radians (no).

endheader
time	pelvis_tilt	pelvis_list	pelvis_rotation	pelvis_tx	pelvis_ty	pelvis_tz	hip_flexion_r	hip_adduction_r	hip_rotation_r	knee_angle_r	knee_angle_r_beta	ankle_angle_r	subtalar_angle_r	mtp_angle_r	hip_flexion_l	hip_adduction_l	hip_rotation_l	knee_angle_l	knee_angle_l_beta	ankle_angle_l	subtalar_angle_l	mtp_angle_l	lumbar_extension	lumbar_bending	lumbar_rotation	arm_flex_r	arm_add_r	arm_rot_r	elbow_flex_r	pro_sup_r	wrist_flex_r	wrist_dev_r	arm_flex_l	arm_add_l	arm_rot_l	elbow_flex_l	pro_sup_l	wrist_flex_l	wrist_dev_l
      4.95000000	    -38.96880587	      0.10301673	     -3.38062272	     -0.41885231	      0.60308034	     -0.91949458	    104.36524348	    -27.83530117	      1.62470546	    100.23864782	      1.74949444	     30.34083278	      0.00000000	      0.00000000	    105.97613823	    -32.02477239	      4.79575894	    102.29442624	      1.78537454	     33.40156488	      0.00000000	      0.00000000	    -20.51818757	      1.61359810	      8.24711616	    -29.07520631	    -57.30848486	     41.63010893	     99.58750343	     87.82595033	      0.00000000	      0.00000000	      9.53592118	    -62.23532660	     76.22871379	    102.27901854	     87.86727362	      0.00000000	      0.00000000
      4.95500000	    -38.90505064	     -0.04812915	     -3.30761944	     -0.41831293	      0.60326126	     -0.91962071	    104.14333554	    -27.99428819	      1.40873149	    100.25270122	      1.74973972	     30.37832161	      0.00000000	      0.00000000	    105.96812827	    -31.93594140	      4.94003732	    102.30638296	      1.78558323	     33.38844604	      0.00000000	      0.00000000	    -20.64221268	      1.81586623	      6.59151396	    -24.52479641	    -58.54031668	     46.36447502	     99.48453197	     87.84014735	      0.00000000	      0.00000000	      3.73493369	    -62.45198422	     70.33437677	    102.44565094	     87.90394563	      0.00000000	      0.00000000
      4.96000000	    -38.93094736	      0.20315308	     -3.45826222	     -0.41851514	      0.60323108	     -0.91945874	    104.35735530	    -27.77483643	      1.69955416	    100.23172495	      1.74937362	     30.32410951	      0.00000000	      0.00000000	    105.82365359	    -32.08823423	      4.70218276	    102.29987810	      1.78546970	     33.49080708	      0.00000000	      0.00000000	    -20.76529293	      1.52565220	      6.26127328	    -23.99986565	    -58.72324036	     46.71327458	     99.66168839	     87.83272844	      0.00000000	      0.00000000	      1.66714554	    -62.59667696	     68.04523637	    102.63292437	     88.00182824	      0.00000000	      0.00000000
      4.96500000	    -39.03987923	      0.27840763	     -3.24374635	     -0.41845386	      0.60315882	     -0.92015713	    104.54037515	    -28.05270739	      1.81644236	    100.21951654	      1.74916054	     30.32093058	      0.00000000	      0.00000000	    105.82007289	    -31.79410305	      4.53686366	    102.29343794	      1.78535730	     33.52103802	      0.00000000	      0.00000000	    -20.56141643	      1.58568328	      6.24468253	    -23.82653426	    -58.73887191	     47.13548035	     99.54622907	     87.81231538	      0.00000000	      0.00000000	      3.14923282	    -62.51300486	     69.76793270	    102.49001019	     87.87639633	      0.00000000	      0.00000000
      4.97000000	    -38.92806014	      0.03230227	     -3.21150272	     -0.41788544	      0.60344823	     -0.92019306	    104.20625205	    -28.19563630	      1.46958529	    100.25415258	      1.74976505	     30.39211198	      0.00000000	      0.00000000	    105.84019226	    -31.72472815	      4.85168492	    102.30861192	      1.78562213	     33.49162541	      0.00000000	      0.00000000	    -20.78001187	      1.88237695	      6.21822386	    -23.87257364	    -58.85013952	     47.05619469	     99.65980312	     87.83584015	      0.00000000	      0.00000000	      2.42355513	    -62.43214892	     68.92646446	    102.47489351	     87.92385338	      0.00000000	      0.00000000
      4.97500000	    -39.02913794	      0.25737642	     -2.58640855	     -0.41782938	      0.60307656	     -0.92200912	    104.62476987	    -28.96595887	      1.93954289	    100.34949825	      1.75142915	     30.32897037	      0.00000000	      0.00000000	    105.64199336	    -30.91005063	      4.42121339	    102.26002197	      1.78477408	     33.56919528	      0.00000000	      0.00000000	    -20.62606258	      1.95579888	      5.36634251	    -23.13824153	    -59.08608486	     47.99961415	     99.65153678	     87.83660045	      0.00000000	      0.00000000	      1.70235210	    -62.35384061	     68.23824477	    102.42335714	     87.87209945	      0.00000000	      0.00000000
      4.98000000	    -38.87358288	     -0.12171517	     -3.02017691	     -0.41723551	      0.60396265	     -0.92083755	    103.95377386	    -28.51770336	      1.25183970	    100.23053259	      1.74935280	     30.50296425	      0.00000000	      0.00000000	    105.74976063	    -31.42589357	      4.96860742	    102.26220662	      1.78481221	     33.56741451	      0.00000000	      0.00000000	    -20.93543714	      2.23540816	      7.83264245	    -28.59564551	    -57.78165911	     42.27707992	     99.72129906	     87.84090530	      0.00000000	      0.00000000	      8.23196430	    -61.91110576	     74.79020766	    101.95835495	     87.88444758	      0.00000000	      0.00000000
      4.98500000	    -38.92528363	     -0.16488148	     -3.00574378	     -0.41709789	      0.60416145	     -0.92089931	    103.92850743	    -28.54520484	      1.16382968	    100.18047883	      1.74847920	     30.49217325	      0.00000000	      0.00000000	    105.78976068	    -31.37278085	      5.00802670	    102.22914511	      1.78423517	     33.55070139	      0.00000000	      0.00000000	    -20.91511513	      2.30553012	      6.62146907	    -25.11038289	    -58.69986914	     45.91246961	     99.66063354	     87.82395326	      0.00000000	      0.00000000	      3.99404580	    -62.11514592	     70.46272495	    102.13870189	     87.89943528	      0.00000000	      0.00000000
      4.99000000	    -38.90712057	      0.00609307	     -2.98419334	     -0.41681222	      0.60447364	     -0.92107333	    104.00295705	    -28.55571054	      1.39418110	    100.17079042	      1.74831011	     30.50411282	      0.00000000	      0.00000000	    105.55229542	    -31.33920072	      4.76832953	    102.18812279	      1.78351920	     33.69115901	      0.00000000	      0.00000000	    -20.96262960	      2.14213984	      5.58984594	    -22.21154319	    -59.29581009	     48.89854578	     99.53948124	     87.82088380	      0.00000000	      0.00000000	      0.62347647	    -62.14505247	     67.00029071	    102.22012291	     87.89499974	      0.00000000	      0.00000000
      4.99500000	    -38.90267753	     -0.21312831	     -2.99653074	     -0.41669682	      0.60483293	     -0.92106024	    103.77367138	    -28.58678942	      1.06649980	    100.11907220	      1.74740745	     30.47910907	      0.00000000	      0.00000000	    105.68023576	    -31.28614404	      5.06677257	    102.16696851	      1.78314999	     33.58946467	      0.00000000	      0.00000000	    -21.04369733	      2.45326018	      7.98696871	    -28.73472516	    -57.81541794	     42.17050338	     99.70277944	     87.84107967	      0.00000000	      0.00000000	      8.30813719	    -61.68926848	     74.73263788	    101.73430995	     87.88956103	      0.00000000	      0.00000000
      5.00000000	    -39.71407046	      0.86121540	     -3.93184366	     -0.42000077	      0.60390942	     -0.91929361	    105.39446637	    -27.08545363	      2.16857882	     99.70526695	      1.74018519	     30.17430593	      0.00000000	      0.00000000	    106.12124126	    -32.22917907	      4.28575147	    102.02080239	      1.78059891	     33.49029772	      0.00000000	      0.00000000	    -20.24546888	      1.01030921	      8.49059759	    -28.73534151	    -57.84972555	     42.20833476	    100.13138958	     87.84698311	      0.00000000	      0.00000000	      8.35469065	    -62.34576630	     74.72163181	    102.33124180	     87.88820910	      0.00000000	      0.00000000
      5.00500000	    -39.70484531	      1.12878074	     -3.90269893	     -0.41989034	      0.60426364	     -0.91945938	    105.58012419	    -27.08121087	      2.51613245	     99.68279949	      1.73979306	     29.90223095	      0.00000000	      0.00000000	    105.82031196	    -32.20306612	      3.89593449	    101.93551847	      1.77911042	     33.55184687	      0.00000000	      0.00000000	    -20.29109728	      0.75611230	      7.96973324	    -27.54258024	    -58.10218950	     43.36113200	    100.04699879	     87.85073704	      0.00000000	      0.00000000	      6.94022141	    -62.47072002	     73.23368897	    102.33867753	     87.88959781	      0.00000000	      0.00000000
      5.01000000	    -39.75368276	      0.96790381	     -4.32492127	     -0.41981635	      0.60489601	     -0.91820639	    105.32119264	    -26.55477455	      2.13047306	     99.53409742	      1.73719772	     29.93411528	      0.00000000	      0.00000000	    106.00712997	    -32.69190541	      4.22186236	    101.86812950	      1.77793426	     33.50210306	      0.00000000	      0.00000000	    -20.30495522	      0.74167513	      7.30089960	    -24.09529793	    -58.81876263	     46.90132651	     99.87178244	     87.82680465	      0.00000000	      0.00000000	      2.94353671	    -62.53997022	     69.08433576	    102.37749817	     87.90737249	      0.00000000	      0.00000000
      5.01500000	    -39.78394493	      0.94385220	     -4.43672302	     -0.41987139	      0.60520980	     -0.91800977	    105.26843443	    -26.42162003	      2.04589014	     99.44462574	      1.73563614	     29.95208836	      0.00000000	      0.00000000	    106.03414966	    -32.77756751	      4.29272799	    101.81838364	      1.77706603	     33.49081660	      0.00000000	      0.00000000	    -20.33490697	      0.78945918	      9.09511723	    -28.81823970	    -57.70025470	     42.02714978	    100.03420659	     87.84014342	      0.00000000	      0.00000000	      8.68736410	    -62.25687902	     74.88780071	    102.06315895	     87.88925819	      0.00000000	      0.00000000
